<svg width="850" height="1100" viewbox = "0 0 850 1100"  xmlns="http://www.w3.org/2000/svg" style = "border:solid;">
    <line x1="759" y1="524" x2="733" y2="524" style="stroke:black;stroke-width:2" />
    <line x1="733" y1="524" x2="707" y2="524" style="stroke:black;stroke-width:2" />
    <line x1="707" y1="524" x2="682" y2="524" style="stroke:black;stroke-width:2" />
    <line x1="682" y1="524" x2="656" y2="524" style="stroke:black;stroke-width:2" />
    <line x1="656" y1="524" x2="630" y2="524" style="stroke:black;stroke-width:2" />
    <line x1="630" y1="524" x2="630" y2="499" style="stroke:black;stroke-width:2" />
    <line x1="630" y1="499" x2="630" y2="473" style="stroke:black;stroke-width:2" />
    <line x1="630" y1="473" x2="630" y2="447" style="stroke:black;stroke-width:2" />
    <line x1="630" y1="447" x2="630" y2="422" style="stroke:black;stroke-width:2" />
    <line x1="630" y1="422" x2="630" y2="396" style="stroke:black;stroke-width:2" />
    <line x1="630" y1="396" x2="630" y2="370" style="stroke:black;stroke-width:2" />
    <line x1="630" y1="370" x2="630" y2="345" style="stroke:black;stroke-width:2" />
    <line x1="605" y1="345" x2="605" y2="370" style="stroke:black;stroke-width:2" />
    <line x1="605" y1="370" x2="605" y2="396" style="stroke:black;stroke-width:2" />
    <line x1="605" y1="396" x2="605" y2="422" style="stroke:black;stroke-width:2" />
    <line x1="605" y1="422" x2="605" y2="434" style="stroke:black;stroke-width:2" />
    <line x1="605" y1="434" x2="553" y2="434" style="stroke:black;stroke-width:2" />
    <line x1="553" y1="434" x2="502" y2="434" style="stroke:black;stroke-width:2" />
    <line x1="502" y1="434" x2="451" y2="434" style="stroke:black;stroke-width:2" />
    <line x1="451" y1="434" x2="399" y2="434" style="stroke:black;stroke-width:2" />
    <line x1="399" y1="434" x2="386" y2="434" style="stroke:black;stroke-width:2" />
    <line x1="386" y1="434" x2="380" y2="434" style="stroke:black;stroke-width:2" />
    <line x1="380" y1="434" x2="380" y2="447" style="stroke:black;stroke-width:2" />
    <line x1="380" y1="447" x2="380" y2="454" style="stroke:black;stroke-width:2" />
    <line x1="380" y1="454" x2="354" y2="454" style="stroke:black;stroke-width:2" />
    <line x1="354" y1="454" x2="329" y2="454" style="stroke:black;stroke-width:2" />
    <line x1="329" y1="454" x2="303" y2="454" style="stroke:black;stroke-width:2" />
    <line x1="303" y1="454" x2="277" y2="454" style="stroke:black;stroke-width:2" />
    <line x1="277" y1="454" x2="277" y2="428" style="stroke:black;stroke-width:2" />
    <line x1="277" y1="428" x2="277" y2="402" style="stroke:black;stroke-width:2" />
    <line x1="277" y1="402" x2="277" y2="377" style="stroke:black;stroke-width:2" />
    <line x1="277" y1="377" x2="277" y2="351" style="stroke:black;stroke-width:2" />
    <line x1="277" y1="351" x2="277" y2="325" style="stroke:black;stroke-width:2" />
    <line x1="277" y1="325" x2="277" y2="300" style="stroke:black;stroke-width:2" />
    <line x1="277" y1="300" x2="277" y2="274" style="stroke:black;stroke-width:2" />
    <line x1="277" y1="274" x2="277" y2="248" style="stroke:black;stroke-width:2" />
    <line x1="277" y1="248" x2="277" y2="223" style="stroke:black;stroke-width:2" />
    <line x1="252" y1="223" x2="252" y2="248" style="stroke:black;stroke-width:2" />
    <line x1="252" y1="248" x2="252" y2="274" style="stroke:black;stroke-width:2" />
    <line x1="252" y1="274" x2="252" y2="300" style="stroke:black;stroke-width:2" />
    <line x1="252" y1="300" x2="252" y2="325" style="stroke:black;stroke-width:2" />
    <line x1="252" y1="325" x2="252" y2="351" style="stroke:black;stroke-width:2" />
    <line x1="252" y1="351" x2="252" y2="377" style="stroke:black;stroke-width:2" />
    <line x1="252" y1="377" x2="252" y2="402" style="stroke:black;stroke-width:2" />
    <line x1="252" y1="402" x2="252" y2="428" style="stroke:black;stroke-width:2" />
    <line x1="252" y1="428" x2="252" y2="454" style="stroke:black;stroke-width:2" />
    <line x1="252" y1="454" x2="252" y2="479" style="stroke:black;stroke-width:2" />
    <line x1="252" y1="479" x2="252" y2="505" style="stroke:black;stroke-width:2" />
    <line x1="252" y1="505" x2="252" y2="531" style="stroke:black;stroke-width:2" />
    <line x1="252" y1="531" x2="252" y2="556" style="stroke:black;stroke-width:2" />
    <line x1="252" y1="556" x2="252" y2="582" style="stroke:black;stroke-width:2" />
    <line x1="252" y1="582" x2="252" y2="608" style="stroke:black;stroke-width:2" />
    <line x1="252" y1="608" x2="252" y2="633" style="stroke:black;stroke-width:2" />
    <line x1="252" y1="633" x2="252" y2="659" style="stroke:black;stroke-width:2" />
    <line x1="252" y1="659" x2="252" y2="685" style="stroke:black;stroke-width:2" />
    <line x1="252" y1="685" x2="252" y2="710" style="stroke:black;stroke-width:2" />
    <line x1="252" y1="710" x2="252" y2="736" style="stroke:black;stroke-width:2" />
    <line x1="252" y1="736" x2="252" y2="762" style="stroke:black;stroke-width:2" />
    <line x1="252" y1="762" x2="226" y2="762" style="stroke:black;stroke-width:2" />
    <line x1="226" y1="762" x2="200" y2="762" style="stroke:black;stroke-width:2" />
    <line x1="200" y1="762" x2="175" y2="762" style="stroke:black;stroke-width:2" />
    <line x1="175" y1="762" x2="149" y2="762" style="stroke:black;stroke-width:2" />
    <line x1="149" y1="762" x2="123" y2="762" style="stroke:black;stroke-width:2" />
    <line x1="123" y1="762" x2="98" y2="762" style="stroke:black;stroke-width:2" />
    <line x1="98" y1="762" x2="72" y2="762" style="stroke:black;stroke-width:2" />
    <line x1="72" y1="788" x2="98" y2="788" style="stroke:black;stroke-width:2" />
    <line x1="98" y1="788" x2="123" y2="788" style="stroke:black;stroke-width:2" />
    <line x1="123" y1="788" x2="149" y2="788" style="stroke:black;stroke-width:2" />
    <line x1="149" y1="788" x2="175" y2="788" style="stroke:black;stroke-width:2" />
    <line x1="175" y1="788" x2="200" y2="788" style="stroke:black;stroke-width:2" />
    <line x1="200" y1="788" x2="226" y2="788" style="stroke:black;stroke-width:2" />
    <line x1="226" y1="788" x2="252" y2="788" style="stroke:black;stroke-width:2" />
    <line x1="252" y1="788" x2="277" y2="788" style="stroke:black;stroke-width:2" />
    <line x1="277" y1="788" x2="303" y2="788" style="stroke:black;stroke-width:2" />
    <line x1="303" y1="788" x2="329" y2="788" style="stroke:black;stroke-width:2" />
    <line x1="329" y1="788" x2="354" y2="788" style="stroke:black;stroke-width:2" />
    <line x1="354" y1="788" x2="380" y2="788" style="stroke:black;stroke-width:2" />
    <line x1="380" y1="788" x2="406" y2="788" style="stroke:black;stroke-width:2" />
    <line x1="406" y1="788" x2="431" y2="788" style="stroke:black;stroke-width:2" />
    <line x1="431" y1="788" x2="457" y2="788" style="stroke:black;stroke-width:2" />
    <line x1="457" y1="788" x2="457" y2="813" style="stroke:black;stroke-width:2" />
    <line x1="457" y1="813" x2="457" y2="826" style="stroke:black;stroke-width:2" />
    <line x1="457" y1="826" x2="470" y2="826" style="stroke:black;stroke-width:2" />
    <line x1="470" y1="826" x2="483" y2="826" style="stroke:black;stroke-width:2" />
    <line x1="483" y1="826" x2="496" y2="826" style="stroke:black;stroke-width:2" />
    <line x1="496" y1="826" x2="508" y2="826" style="stroke:black;stroke-width:2" />
    <line x1="508" y1="826" x2="521" y2="826" style="stroke:black;stroke-width:2" />
    <line x1="521" y1="826" x2="534" y2="826" style="stroke:black;stroke-width:2" />
    <line x1="534" y1="826" x2="534" y2="839" style="stroke:black;stroke-width:2" />
    <line x1="534" y1="839" x2="534" y2="852" style="stroke:black;stroke-width:2" />
    <line x1="534" y1="852" x2="534" y2="865" style="stroke:black;stroke-width:2" />
    <line x1="534" y1="865" x2="534" y2="877" style="stroke:black;stroke-width:2" />
    <line x1="534" y1="877" x2="534" y2="890" style="stroke:black;stroke-width:2" />
    <line x1="534" y1="890" x2="534" y2="903" style="stroke:black;stroke-width:2" />
    <line x1="547" y1="903" x2="547" y2="890" style="stroke:black;stroke-width:2" />
    <line x1="547" y1="890" x2="547" y2="877" style="stroke:black;stroke-width:2" />
    <line x1="547" y1="877" x2="547" y2="865" style="stroke:black;stroke-width:2" />
    <line x1="547" y1="865" x2="547" y2="852" style="stroke:black;stroke-width:2" />
    <line x1="547" y1="852" x2="547" y2="839" style="stroke:black;stroke-width:2" />
    <line x1="547" y1="839" x2="547" y2="826" style="stroke:black;stroke-width:2" />
    <line x1="547" y1="826" x2="560" y2="826" style="stroke:black;stroke-width:2" />
    <line x1="560" y1="826" x2="573" y2="826" style="stroke:black;stroke-width:2" />
    <line x1="573" y1="826" x2="585" y2="826" style="stroke:black;stroke-width:2" />
    <line x1="585" y1="826" x2="598" y2="826" style="stroke:black;stroke-width:2" />
    <line x1="598" y1="826" x2="598" y2="839" style="stroke:black;stroke-width:2" />
    <line x1="598" y1="839" x2="598" y2="852" style="stroke:black;stroke-width:2" />
    <line x1="598" y1="852" x2="611" y2="852" style="stroke:black;stroke-width:2" />
    <line x1="611" y1="852" x2="624" y2="852" style="stroke:black;stroke-width:2" />
    <line x1="624" y1="852" x2="637" y2="852" style="stroke:black;stroke-width:2" />
    <line x1="637" y1="852" x2="650" y2="852" style="stroke:black;stroke-width:2" />
    <line x1="650" y1="852" x2="663" y2="852" style="stroke:black;stroke-width:2" />
    <line x1="663" y1="852" x2="675" y2="852" style="stroke:black;stroke-width:2" />
    <line x1="675" y1="852" x2="688" y2="852" style="stroke:black;stroke-width:2" />
    <line x1="688" y1="852" x2="688" y2="865" style="stroke:black;stroke-width:2" />
    <line x1="688" y1="865" x2="688" y2="877" style="stroke:black;stroke-width:2" />
    <line x1="688" y1="877" x2="688" y2="890" style="stroke:black;stroke-width:2" />
    <line x1="688" y1="890" x2="688" y2="903" style="stroke:black;stroke-width:2" />
    <line x1="688" y1="903" x2="688" y2="916" style="stroke:black;stroke-width:2" />
    <line x1="714" y1="916" x2="714" y2="903" style="stroke:black;stroke-width:2" />
    <line x1="714" y1="903" x2="714" y2="890" style="stroke:black;stroke-width:2" />
    <line x1="714" y1="890" x2="714" y2="877" style="stroke:black;stroke-width:2" />
    <line x1="714" y1="877" x2="714" y2="865" style="stroke:black;stroke-width:2" />
    <line x1="714" y1="865" x2="714" y2="852" style="stroke:black;stroke-width:2" />
    <line x1="714" y1="852" x2="727" y2="852" style="stroke:black;stroke-width:2" />
    <line x1="727" y1="852" x2="740" y2="852" style="stroke:black;stroke-width:2" />
    <line x1="740" y1="852" x2="752" y2="852" style="stroke:black;stroke-width:2" />
    <line x1="752" y1="852" x2="765" y2="852" style="stroke:black;stroke-width:2" />
    <line x1="765" y1="800" x2="752" y2="800" style="stroke:black;stroke-width:2" />
    <line x1="752" y1="800" x2="740" y2="800" style="stroke:black;stroke-width:2" />
    <line x1="740" y1="800" x2="727" y2="800" style="stroke:black;stroke-width:2" />
    <line x1="727" y1="800" x2="714" y2="800" style="stroke:black;stroke-width:2" />
    <line x1="714" y1="800" x2="701" y2="800" style="stroke:black;stroke-width:2" />
    <line x1="701" y1="800" x2="688" y2="800" style="stroke:black;stroke-width:2" />
    <line x1="688" y1="800" x2="675" y2="800" style="stroke:black;stroke-width:2" />
    <line x1="675" y1="800" x2="663" y2="800" style="stroke:black;stroke-width:2" />
    <line x1="663" y1="800" x2="650" y2="800" style="stroke:black;stroke-width:2" />
    <line x1="650" y1="800" x2="637" y2="800" style="stroke:black;stroke-width:2" />
    <line x1="637" y1="800" x2="624" y2="800" style="stroke:black;stroke-width:2" />
    <line x1="624" y1="800" x2="624" y2="788" style="stroke:black;stroke-width:2" />
    <line x1="624" y1="788" x2="624" y2="775" style="stroke:black;stroke-width:2" />
    <line x1="624" y1="775" x2="624" y2="762" style="stroke:black;stroke-width:2" />
    <line x1="624" y1="762" x2="624" y2="749" style="stroke:black;stroke-width:2" />
    <line x1="624" y1="749" x2="624" y2="736" style="stroke:black;stroke-width:2" />
    <line x1="624" y1="736" x2="624" y2="723" style="stroke:black;stroke-width:2" />
    <line x1="624" y1="723" x2="624" y2="710" style="stroke:black;stroke-width:2" />
    <line x1="624" y1="710" x2="624" y2="698" style="stroke:black;stroke-width:2" />
    <line x1="624" y1="698" x2="624" y2="685" style="stroke:black;stroke-width:2" />
    <line x1="624" y1="685" x2="624" y2="672" style="stroke:black;stroke-width:2" />
    <line x1="624" y1="672" x2="624" y2="659" style="stroke:black;stroke-width:2" />
    <line x1="624" y1="659" x2="624" y2="646" style="stroke:black;stroke-width:2" />
    <line x1="624" y1="646" x2="624" y2="633" style="stroke:black;stroke-width:2" />
    <line x1="624" y1="633" x2="624" y2="621" style="stroke:black;stroke-width:2" />
    <line x1="624" y1="621" x2="624" y2="608" style="stroke:black;stroke-width:2" />
    <line x1="624" y1="608" x2="624" y2="595" style="stroke:black;stroke-width:2" />
    <line x1="624" y1="595" x2="624" y2="582" style="stroke:black;stroke-width:2" />
    <line x1="624" y1="582" x2="624" y2="569" style="stroke:black;stroke-width:2" />
    <line x1="624" y1="569" x2="624" y2="556" style="stroke:black;stroke-width:2" />
    <line x1="624" y1="556" x2="637" y2="556" style="stroke:black;stroke-width:2" />
    <line x1="637" y1="556" x2="650" y2="556" style="stroke:black;stroke-width:2" />
    <line x1="650" y1="556" x2="663" y2="556" style="stroke:black;stroke-width:2" />
    <line x1="663" y1="556" x2="675" y2="556" style="stroke:black;stroke-width:2" />
    <line x1="675" y1="556" x2="688" y2="556" style="stroke:black;stroke-width:2" />
    <line x1="688" y1="556" x2="701" y2="556" style="stroke:black;stroke-width:2" />
    <line x1="701" y1="556" x2="714" y2="556" style="stroke:black;stroke-width:2" />
    <line x1="714" y1="556" x2="727" y2="556" style="stroke:black;stroke-width:2" />
    <line x1="727" y1="556" x2="740" y2="556" style="stroke:black;stroke-width:2" />
    <line x1="740" y1="556" x2="752" y2="556" style="stroke:black;stroke-width:2" />
    <line x1="752" y1="556" x2="765" y2="556" style="stroke:black;stroke-width:2" />
    <line x1="598" y1="556" x2="598" y2="531" style="stroke:black;stroke-width:2" />
    <line x1="598" y1="531" x2="598" y2="505" style="stroke:black;stroke-width:2" />
    <line x1="598" y1="505" x2="598" y2="479" style="stroke:black;stroke-width:2" />
    <line x1="598" y1="479" x2="598" y2="454" style="stroke:black;stroke-width:2" />
    <line x1="598" y1="454" x2="573" y2="454" style="stroke:black;stroke-width:2" />
    <line x1="573" y1="454" x2="547" y2="454" style="stroke:black;stroke-width:2" />
    <line x1="547" y1="454" x2="521" y2="454" style="stroke:black;stroke-width:2" />
    <line x1="521" y1="454" x2="496" y2="454" style="stroke:black;stroke-width:2" />
    <line x1="496" y1="454" x2="470" y2="454" style="stroke:black;stroke-width:2" />
    <line x1="470" y1="454" x2="444" y2="454" style="stroke:black;stroke-width:2" />
    <line x1="444" y1="454" x2="419" y2="454" style="stroke:black;stroke-width:2" />
    <line x1="419" y1="454" x2="406" y2="454" style="stroke:black;stroke-width:2" />
    <line x1="406" y1="454" x2="406" y2="467" style="stroke:black;stroke-width:2" />
    <line x1="406" y1="467" x2="406" y2="479" style="stroke:black;stroke-width:2" />
    <line x1="406" y1="479" x2="393" y2="479" style="stroke:black;stroke-width:2" />
    <line x1="393" y1="479" x2="380" y2="479" style="stroke:black;stroke-width:2" />
    <line x1="380" y1="479" x2="367" y2="479" style="stroke:black;stroke-width:2" />
    <line x1="367" y1="479" x2="354" y2="479" style="stroke:black;stroke-width:2" />
    <line x1="354" y1="479" x2="342" y2="479" style="stroke:black;stroke-width:2" />
    <line x1="342" y1="479" x2="329" y2="479" style="stroke:black;stroke-width:2" />
    <line x1="329" y1="479" x2="316" y2="479" style="stroke:black;stroke-width:2" />
    <line x1="316" y1="479" x2="303" y2="479" style="stroke:black;stroke-width:2" />
    <line x1="303" y1="479" x2="297" y2="479" style="stroke:black;stroke-width:2" />
    <line x1="297" y1="479" x2="297" y2="486" style="stroke:black;stroke-width:2" />
    <line x1="297" y1="486" x2="297" y2="492" style="stroke:black;stroke-width:2" />
    <line x1="297" y1="492" x2="297" y2="499" style="stroke:black;stroke-width:2" />
    <line x1="297" y1="499" x2="297" y2="505" style="stroke:black;stroke-width:2" />
    <line x1="297" y1="505" x2="297" y2="511" style="stroke:black;stroke-width:2" />
    <line x1="297" y1="511" x2="297" y2="518" style="stroke:black;stroke-width:2" />
    <line x1="297" y1="518" x2="297" y2="524" style="stroke:black;stroke-width:2" />
    <line x1="297" y1="524" x2="297" y2="531" style="stroke:black;stroke-width:2" />
    <line x1="297" y1="531" x2="297" y2="537" style="stroke:black;stroke-width:2" />
    <line x1="297" y1="537" x2="290" y2="537" style="stroke:black;stroke-width:2" />
    <line x1="290" y1="537" x2="290" y2="544" style="stroke:black;stroke-width:2" />
    <line x1="290" y1="544" x2="290" y2="550" style="stroke:black;stroke-width:2" />
    <line x1="290" y1="550" x2="290" y2="556" style="stroke:black;stroke-width:2" />
    <line x1="290" y1="556" x2="284" y2="556" style="stroke:black;stroke-width:2" />
    <line x1="284" y1="556" x2="284" y2="563" style="stroke:black;stroke-width:2" />
    <line x1="284" y1="563" x2="284" y2="569" style="stroke:black;stroke-width:2" />
    <line x1="284" y1="569" x2="284" y2="576" style="stroke:black;stroke-width:2" />
    <line x1="284" y1="576" x2="284" y2="589" style="stroke:black;stroke-width:2" />
    <line x1="284" y1="589" x2="284" y2="601" style="stroke:black;stroke-width:2" />
    <line x1="284" y1="601" x2="284" y2="614" style="stroke:black;stroke-width:2" />
    <line x1="284" y1="614" x2="284" y2="627" style="stroke:black;stroke-width:2" />
    <line x1="284" y1="627" x2="284" y2="640" style="stroke:black;stroke-width:2" />
    <line x1="284" y1="640" x2="284" y2="653" style="stroke:black;stroke-width:2" />
    <line x1="284" y1="653" x2="284" y2="666" style="stroke:black;stroke-width:2" />
    <line x1="284" y1="666" x2="284" y2="678" style="stroke:black;stroke-width:2" />
    <line x1="284" y1="678" x2="284" y2="691" style="stroke:black;stroke-width:2" />
    <line x1="284" y1="691" x2="284" y2="704" style="stroke:black;stroke-width:2" />
    <line x1="284" y1="704" x2="284" y2="717" style="stroke:black;stroke-width:2" />
    <line x1="284" y1="717" x2="284" y2="730" style="stroke:black;stroke-width:2" />
    <line x1="284" y1="730" x2="284" y2="743" style="stroke:black;stroke-width:2" />
    <line x1="284" y1="743" x2="284" y2="755" style="stroke:black;stroke-width:2" />
    <line x1="284" y1="755" x2="284" y2="762" style="stroke:black;stroke-width:2" />
    <line x1="284" y1="762" x2="297" y2="762" style="stroke:black;stroke-width:2" />
    <line x1="297" y1="762" x2="309" y2="762" style="stroke:black;stroke-width:2" />
    <line x1="309" y1="762" x2="322" y2="762" style="stroke:black;stroke-width:2" />
    <line x1="322" y1="762" x2="335" y2="762" style="stroke:black;stroke-width:2" />
    <line x1="335" y1="762" x2="348" y2="762" style="stroke:black;stroke-width:2" />
    <line x1="348" y1="762" x2="361" y2="762" style="stroke:black;stroke-width:2" />
    <line x1="361" y1="762" x2="374" y2="762" style="stroke:black;stroke-width:2" />
    <line x1="374" y1="762" x2="386" y2="762" style="stroke:black;stroke-width:2" />
    <line x1="386" y1="762" x2="399" y2="762" style="stroke:black;stroke-width:2" />
    <line x1="399" y1="762" x2="412" y2="762" style="stroke:black;stroke-width:2" />
    <line x1="412" y1="762" x2="425" y2="762" style="stroke:black;stroke-width:2" />
    <line x1="425" y1="762" x2="438" y2="762" style="stroke:black;stroke-width:2" />
    <line x1="438" y1="762" x2="451" y2="762" style="stroke:black;stroke-width:2" />
    <line x1="451" y1="762" x2="464" y2="762" style="stroke:black;stroke-width:2" />
    <line x1="464" y1="762" x2="476" y2="762" style="stroke:black;stroke-width:2" />
    <line x1="476" y1="762" x2="476" y2="775" style="stroke:black;stroke-width:2" />
    <line x1="476" y1="775" x2="476" y2="788" style="stroke:black;stroke-width:2" />
    <line x1="476" y1="788" x2="489" y2="788" style="stroke:black;stroke-width:2" />
    <line x1="489" y1="788" x2="502" y2="788" style="stroke:black;stroke-width:2" />
    <line x1="502" y1="788" x2="515" y2="788" style="stroke:black;stroke-width:2" />
    <line x1="515" y1="788" x2="528" y2="788" style="stroke:black;stroke-width:2" />
    <line x1="528" y1="788" x2="541" y2="788" style="stroke:black;stroke-width:2" />
    <line x1="541" y1="788" x2="553" y2="788" style="stroke:black;stroke-width:2" />
    <line x1="553" y1="788" x2="566" y2="788" style="stroke:black;stroke-width:2" />
    <line x1="566" y1="788" x2="579" y2="788" style="stroke:black;stroke-width:2" />
    <line x1="579" y1="788" x2="592" y2="788" style="stroke:black;stroke-width:2" />
    <line x1="592" y1="788" x2="598" y2="788" style="stroke:black;stroke-width:2" />
    <line x1="598" y1="788" x2="598" y2="762" style="stroke:black;stroke-width:2" />
    <line x1="598" y1="762" x2="598" y2="736" style="stroke:black;stroke-width:2" />
    <line x1="598" y1="736" x2="598" y2="710" style="stroke:black;stroke-width:2" />
    <line x1="598" y1="710" x2="598" y2="685" style="stroke:black;stroke-width:2" />
    <line x1="598" y1="685" x2="598" y2="659" style="stroke:black;stroke-width:2" />
    <line x1="598" y1="659" x2="598" y2="633" style="stroke:black;stroke-width:2" />
    <line x1="598" y1="633" x2="598" y2="608" style="stroke:black;stroke-width:2" />
    <line x1="598" y1="608" x2="598" y2="582" style="stroke:black;stroke-width:2" />
    <line x1="598" y1="582" x2="598" y2="556" style="stroke:black;stroke-width:2" />
    <line x1="335" y1="1019" x2="335" y2="993" style="stroke:black;stroke-width:2" />
    <line x1="335" y1="993" x2="335" y2="967" style="stroke:black;stroke-width:2" />
    <line x1="335" y1="967" x2="335" y2="942" style="stroke:black;stroke-width:2" />
    <line x1="335" y1="942" x2="335" y2="916" style="stroke:black;stroke-width:2" />
    <line x1="335" y1="916" x2="335" y2="890" style="stroke:black;stroke-width:2" />
    <line x1="335" y1="890" x2="335" y2="865" style="stroke:black;stroke-width:2" />
    <line x1="335" y1="865" x2="335" y2="839" style="stroke:black;stroke-width:2" />
    <line x1="335" y1="839" x2="335" y2="813" style="stroke:black;stroke-width:2" />
    <line x1="335" y1="813" x2="335" y2="788" style="stroke:black;stroke-width:2" />
    <line x1="309" y1="813" x2="309" y2="788" style="stroke:black;stroke-width:2" />
    <line x1="309" y1="813" x2="316" y2="813" style="stroke:black;stroke-width:2" />
    <line x1="316" y1="813" x2="322" y2="813" style="stroke:black;stroke-width:2" />
    <line x1="322" y1="813" x2="322" y2="820" style="stroke:black;stroke-width:2" />
    <line x1="322" y1="820" x2="322" y2="826" style="stroke:black;stroke-width:2" />
    <line x1="322" y1="826" x2="322" y2="832" style="stroke:black;stroke-width:2" />
    <line x1="322" y1="832" x2="322" y2="839" style="stroke:black;stroke-width:2" />
    <line x1="322" y1="839" x2="322" y2="845" style="stroke:black;stroke-width:2" />
    <line x1="322" y1="845" x2="322" y2="852" style="stroke:black;stroke-width:2" />
    <line x1="322" y1="852" x2="322" y2="858" style="stroke:black;stroke-width:2" />
    <line x1="322" y1="858" x2="322" y2="865" style="stroke:black;stroke-width:2" />
    <line x1="322" y1="865" x2="322" y2="871" style="stroke:black;stroke-width:2" />
    <line x1="322" y1="871" x2="322" y2="877" style="stroke:black;stroke-width:2" />
    <line x1="322" y1="877" x2="322" y2="884" style="stroke:black;stroke-width:2" />
    <line x1="322" y1="884" x2="322" y2="890" style="stroke:black;stroke-width:2" />
    <line x1="322" y1="890" x2="322" y2="897" style="stroke:black;stroke-width:2" />
    <line x1="322" y1="897" x2="322" y2="903" style="stroke:black;stroke-width:2" />
    <line x1="322" y1="903" x2="322" y2="909" style="stroke:black;stroke-width:2" />
    <line x1="322" y1="909" x2="322" y2="916" style="stroke:black;stroke-width:2" />
    <line x1="322" y1="916" x2="322" y2="922" style="stroke:black;stroke-width:2" />
    <line x1="322" y1="922" x2="316" y2="922" style="stroke:black;stroke-width:2" />
    <line x1="316" y1="922" x2="309" y2="922" style="stroke:black;stroke-width:2" />
    <line x1="309" y1="922" x2="309" y2="929" style="stroke:black;stroke-width:2" />
    <line x1="309" y1="929" x2="309" y2="935" style="stroke:black;stroke-width:2" />
    <line x1="309" y1="935" x2="309" y2="942" style="stroke:black;stroke-width:2" />
    <line x1="309" y1="942" x2="309" y2="948" style="stroke:black;stroke-width:2" />
    <line x1="309" y1="948" x2="309" y2="954" style="stroke:black;stroke-width:2" />
    <line x1="309" y1="954" x2="309" y2="961" style="stroke:black;stroke-width:2" />
    <line x1="309" y1="961" x2="309" y2="967" style="stroke:black;stroke-width:2" />
    <line x1="309" y1="967" x2="309" y2="974" style="stroke:black;stroke-width:2" />
    <line x1="309" y1="974" x2="309" y2="980" style="stroke:black;stroke-width:2" />
    <line x1="309" y1="980" x2="309" y2="986" style="stroke:black;stroke-width:2" />
    <line x1="309" y1="986" x2="309" y2="993" style="stroke:black;stroke-width:2" />
    <line x1="309" y1="993" x2="309" y2="999" style="stroke:black;stroke-width:2" />
    <line x1="309" y1="999" x2="309" y2="1006" style="stroke:black;stroke-width:2" />
    <line x1="309" y1="1006" x2="309" y2="1012" style="stroke:black;stroke-width:2" />
    <line x1="309" y1="1012" x2="309" y2="1019" style="stroke:black;stroke-width:2" />
    <line x1="309" y1="1019" x2="309" y2="1025" style="stroke:black;stroke-width:2" />
</svg>