<svg width="850" height="1100" viewbox = "0 0 850 1100"  xmlns="http://www.w3.org/2000/svg" style = "border:solid;">
    <line x1="233" y1="119" x2="233" y2="43" style="stroke:black;stroke-width:2" />
    <line x1="233" y1="43" x2="157" y2="43" style="stroke:black;stroke-width:2" />
    <line x1="157" y1="43" x2="80" y2="43" style="stroke:black;stroke-width:2" />
    <line x1="80" y1="43" x2="42" y2="43" style="stroke:black;stroke-width:2" />
    <line x1="42" y1="43" x2="42" y2="81" style="stroke:black;stroke-width:2" />
    <line x1="42" y1="81" x2="42" y2="119" style="stroke:black;stroke-width:2" />
    <line x1="42" y1="119" x2="42" y2="158" style="stroke:black;stroke-width:2" />
    <line x1="42" y1="158" x2="42" y2="196" style="stroke:black;stroke-width:2" />
    <line x1="42" y1="196" x2="42" y2="234" style="stroke:black;stroke-width:2" />
    <line x1="42" y1="234" x2="42" y2="273" style="stroke:black;stroke-width:2" />
    <line x1="42" y1="273" x2="80" y2="273" style="stroke:black;stroke-width:2" />
    <line x1="80" y1="273" x2="118" y2="273" style="stroke:black;stroke-width:2" />
    <line x1="118" y1="273" x2="157" y2="273" style="stroke:black;stroke-width:2" />
    <line x1="157" y1="273" x2="195" y2="273" style="stroke:black;stroke-width:2" />
    <line x1="195" y1="273" x2="233" y2="273" style="stroke:black;stroke-width:2" />
    <line x1="233" y1="273" x2="233" y2="234" style="stroke:black;stroke-width:2" />
    <line x1="233" y1="234" x2="233" y2="196" style="stroke:black;stroke-width:2" />
    <line x1="233" y1="196" x2="233" y2="158" style="stroke:black;stroke-width:2" />
    <line x1="233" y1="158" x2="233" y2="119" style="stroke:black;stroke-width:2" />
</svg>